<?xml version="1.0" standalone="yes"?>
<svg xmlns="http://www.w3.org/2000/svg" width="265" height="265">
<path style="fill:#ffffff; stroke:none;" d="M0 0L0 265L265 265L265 0L0 0z"/>
<path style="fill:#5b81b1; stroke:none;" d="M128 8.42438C117.126 9.83464 106.624 10.5545 96 13.7207C66.5698 22.4919 41.1385 42.6335 25.4529 69C-8.76796 126.523 11.1173 201.778 67 237.305C77.9459 244.263 90.4119 249.128 103 252.116C117.422 255.539 132.313 256.518 147 254.714C208.008 247.217 255.921 193.705 255.921 132C255.921 76.124 216.219 25.3636 162 12.1296C151.49 9.56429 138.798 7.02405 128 8.42438z"/>
<path style="fill:#ffffff; stroke:none;" d="M101 77.439C74.3936 81.5946 52.8445 104.444 64.4645 132C68.6137 141.84 79.0682 146.496 83.1844 156.001C88.4891 168.249 91.5947 182.503 98.3634 193.996C101.632 199.547 107.517 202.758 114 201.667C116.113 201.311 118.198 200.536 119.956 199.297C133.218 189.951 118.973 178.172 118.927 167.09C118.914 164.016 123.77 157.82 125.839 155.51C128.69 152.326 134.266 151.497 138 149.63C145.214 146.023 152.131 137.894 160 136.279C167.881 134.661 178.618 139.021 183.991 130.895C188.12 124.65 187.949 105.9 182.467 100.558C175.763 94.025 165.856 99.0682 158 96.2724C151.995 94.1353 146.592 88.9814 141 85.8619C128.815 79.0645 114.998 75.2528 101 77.439z"/>
<path style="fill:#5b81b1; stroke:none;" d="M159 129C163.8 129 172.452 130.653 176.566 127.821C181.096 124.704 180.499 107.93 175.852 105.179C172.672 103.296 164.667 103.074 161.299 104.603C159.31 105.505 157.866 109.536 155.259 108.079C152.872 106.745 152.614 102.842 150.683 100.899C146.721 96.9136 140.962 93.8088 136 91.2593C128.656 87.4856 120.3 84.632 112 84.0903C92.6801 82.8294 68.5018 94.17 68.054 116C67.8755 124.701 71.9993 132.914 78.0401 138.96C80.8717 141.794 84.6815 143.892 87.0054 147.184C93.136 155.871 96.0447 169.11 100 179C102.258 184.645 104.656 196.073 112.981 194.333C121.093 192.638 116.88 182.913 115.05 178C113.54 173.945 108.283 165.49 110.213 161.228C111.342 158.735 114.438 158.506 115.977 156.441C118.141 153.536 117.365 150.402 121.059 148.419C130.906 143.134 144.233 141.425 151.397 131.7C154.097 128.034 152.467 123.19 153.148 119.02C153.399 117.485 154.031 115.207 156 115.207C160.504 115.207 159 126.224 159 129z"/>
<path style="fill:#ffffff; stroke:none;" d="M204.004 94.598C201.786 95.0731 191.452 100.824 195.662 103.917C198.745 106.183 202.82 100.629 206 100.634C212.364 100.644 215.493 107.595 223 105.566C226.082 104.733 229.548 102.254 231.338 99.591C232.184 98.3315 232.613 96.3148 230.663 95.8279C226.372 94.7569 223.475 100.952 219 100.172C213.382 99.193 210.53 93.2 204.004 94.598M82.4267 102.012C80.0822 103.736 82.0783 105.931 84.1134 106.566C87.4506 107.608 96.5246 108.16 99.3773 105.826C101.435 104.142 99.9004 101.918 97.8511 101.317C94.5081 100.338 85.3334 99.8757 82.4267 102.012M194 120C199.169 121.142 201.254 116.851 206 116.75C209.702 116.671 212.67 120.592 216 121.848C223.029 124.499 231.045 118.667 233 112C227.354 111.285 225.104 116.123 220 116.454C216.174 116.703 213.364 112.971 210 111.738C202.987 109.169 196.847 113.913 194 120M80 114C82.7496 117.813 86.8157 117.236 91 116C88.3849 111.258 84.4413 111.866 80 114M96.6034 113.071C94.0889 114.834 96.9747 118.361 99.3966 116.717C101.917 115.006 99.012 111.383 96.6034 113.071M82.4923 124.023C80.1536 125.783 81.8737 128.061 84.0741 128.682C87.3233 129.599 96.6153 130.189 99.3773 127.988C101.479 126.312 99.8445 124.08 97.8511 123.434C94.5461 122.362 85.3838 121.847 82.4923 124.023M233 129C227.154 127.592 225.247 132.323 220 132.828C215.297 133.28 211.906 127.487 207 127.127C203.268 126.854 199.709 128.479 197.167 131.188C196.091 132.336 194.214 134.701 195.752 136.249C198.308 138.823 203.727 132.468 207 133.02C210.349 133.585 212.801 136.842 216 137.965C223.139 140.471 230.088 135.192 233 129z"/>
<path style="fill:#636365; stroke:none;" d="M230 127L231 128L230 127M217 138L218 139L217 138z"/>
</svg>
